<svg width="76" height="88" viewBox="0 0 76 88" fill="none" xmlns="http://www.w3.org/2000/svg">
<rect y="0.482216" width="76" height="86.5715" rx="6" fill="white"/>
<g clip-path="url(#clip0_0_100)">
<path d="M21 36.4822C26.5228 36.4822 31 32.0051 31 26.4822C31 20.9594 26.5228 16.4822 21 16.4822C15.4772 16.4822 11 20.9594 11 26.4822C11 32.0051 15.4772 36.4822 21 36.4822Z" fill="#FF4A00"/>
<path d="M22.25 26.4844C22.2501 26.8446 22.185 27.2019 22.058 27.5391C21.7206 27.6666 21.3629 27.732 21.0021 27.7322H20.9979C20.6376 27.7322 20.2803 27.6672 19.9432 27.5402C19.8156 27.2028 19.7502 26.8451 19.75 26.4844V26.4801C19.75 26.1198 19.8151 25.7625 19.942 25.4254C20.2794 25.2978 20.6371 25.2324 20.9979 25.2322H21.0021C21.3628 25.2321 21.7205 25.2972 22.058 25.4244C22.185 25.7615 22.2501 26.1188 22.25 26.4791V26.4834V26.4844ZM25.9305 25.6488H23.0117L25.0756 23.5851C24.9135 23.3578 24.7327 23.1444 24.5352 22.9471C24.3378 22.7498 24.1244 22.5693 23.8971 22.4074L21.8334 24.4705V21.5517C21.5589 21.5056 21.2811 21.4824 21.0027 21.4822H20.9975C20.7191 21.4824 20.4413 21.5056 20.1668 21.5517V24.4705L18.1029 22.4066C17.8756 22.5687 17.6622 22.7495 17.4648 22.9471C17.2676 23.1443 17.0872 23.3576 16.9254 23.5848L18.9883 25.6488H16.0695C16.0695 25.6488 16 26.1971 16 26.4805V26.484C16.0001 26.7626 16.0234 27.0408 16.0695 27.3156H18.9883L16.9244 29.3793C17.249 29.8349 17.6473 30.2333 18.1029 30.5578L20.1666 28.4939V31.4127C20.4408 31.4587 20.7184 31.482 20.9965 31.4822H21.0037C21.2817 31.482 21.5592 31.4587 21.8334 31.4127V28.4939L23.8971 30.5578C24.1244 30.3957 24.3378 30.2149 24.5352 30.0174C24.7325 29.82 24.9131 29.6066 25.075 29.3793L23.0117 27.3156H25.9305C25.9765 27.0414 25.9998 26.7638 26 26.4857V26.4785C25.9998 26.2005 25.9765 25.923 25.9305 25.6488Z" fill="white"/>
</g>
<path fill-rule="evenodd" clip-rule="evenodd" d="M49 17.4822C47.8954 17.4822 47 18.3776 47 19.4822V33.4822C47 34.5868 47.8954 35.4822 49 35.4822H63C64.1046 35.4822 65 34.5868 65 33.4822V19.4822C65 18.3776 64.1046 17.4822 63 17.4822L49 17.4822Z" fill="white"/>
<path fill-rule="evenodd" clip-rule="evenodd" d="M49 17.4822C47.8954 17.4822 47 18.3776 47 19.4822V33.4822C47 34.5868 47.8954 35.4822 49 35.4822H63C64.1046 35.4822 65 34.5868 65 33.4822V19.4822C65 18.3776 64.1046 17.4822 63 17.4822L49 17.4822ZM59.401 24.8254C59.401 24.8254 58.428 27.7643 58.3485 28.007C58.1035 26.1651 57.8561 24.3235 57.6065 22.4822C55.9485 22.4822 55.062 23.6187 54.5935 24.8182L53.311 28.0143C53.3035 27.7851 53.131 24.8529 53.131 24.8529C53.029 23.3832 51.631 22.4885 50.5 22.4885L51.8695 30.4822C53.6065 30.475 54.543 29.3453 55.0335 28.1457C55.0335 28.1457 56.0785 25.5463 56.1215 25.4283C56.129 25.5391 56.8715 30.4817 56.8715 30.4817C58.6155 30.4817 59.5525 29.4214 60.0565 28.2637L62.5 22.489C60.7775 22.489 59.8695 23.6192 59.401 24.8254Z" fill="#4353FF"/>
<path fill-rule="evenodd" clip-rule="evenodd" d="M15 64.8632H21.5V71.0537L15 64.8632Z" fill="#0055FF"/>
<path d="M21.5 58.6727H15L15 64.8632H28L21.5 58.6727Z" fill="#00AAFF"/>
<path d="M15 52.4822L21.5 58.6727H28V52.4822H15Z" fill="#88DDFF"/>
<path d="M45.1246 61.768C45.1246 64.6907 46.8246 67.208 49.2831 68.4045L45.7654 58.7668C45.343 59.711 45.1246 60.7336 45.1246 61.768ZM52.5 69.1433C53.3565 69.1433 54.1804 68.993 54.9519 68.7249L54.8996 68.6268L52.6308 62.4153L50.4208 68.8426C51.0746 69.0387 51.7742 69.1433 52.5 69.1433ZM53.5135 58.3091L56.1811 66.2403L56.92 63.7818C57.2339 62.7618 57.4758 62.0295 57.4758 61.3953C57.4758 60.4799 57.1489 59.8522 56.8742 59.3683C56.495 58.7537 56.1485 58.2372 56.1485 57.6357C56.1485 56.9557 56.6585 56.328 57.3908 56.328H57.4823C56.1233 55.0804 54.3448 54.3895 52.5 54.3926C51.2785 54.3924 50.0761 54.6958 49.001 55.2756C47.9258 55.8554 47.0117 56.6933 46.3408 57.7141L46.8115 57.7272C47.5831 57.7272 48.7731 57.6291 48.7731 57.6291C49.1785 57.6095 49.2242 58.1914 48.8254 58.2372C48.8254 58.2372 48.4265 58.2895 47.9754 58.3091L50.6692 66.2991L52.2842 61.4607L51.1335 58.3091C50.8757 58.2949 50.6184 58.2731 50.3619 58.2437C49.9631 58.2176 50.0089 57.6095 50.4077 57.6291C50.4077 57.6291 51.6239 57.7272 52.3496 57.7272C53.1211 57.7272 54.3111 57.6291 54.3111 57.6291C54.71 57.6095 54.7623 58.1914 54.3635 58.2372C54.3635 58.2372 53.9646 58.283 53.5135 58.3091ZM56.2073 68.143C57.3231 67.4942 58.249 66.564 58.8927 65.4453C59.5364 64.3266 59.8752 63.0586 59.8754 61.768C59.8754 60.4864 59.5485 59.2833 58.9731 58.2307C59.0899 59.3888 58.9146 60.5578 58.4631 61.6307L56.2073 68.143ZM52.5 70.268C50.2457 70.268 48.0837 69.3724 46.4896 67.7784C44.8955 66.1843 44 64.0223 44 61.768C44 59.5136 44.8955 57.3516 46.4896 55.7576C48.0837 54.1635 50.2457 53.268 52.5 53.268C54.7543 53.268 56.9163 54.1635 58.5104 55.7576C60.1045 57.3516 61 59.5136 61 61.768C61 64.0223 60.1045 66.1843 58.5104 67.7784C56.9163 69.3724 54.7543 70.268 52.5 70.268Z" fill="#126FC2"/>
<defs>
<clipPath id="clip0_0_100">
<rect width="20" height="20" fill="white" transform="translate(11 16.4822)"/>
</clipPath>
</defs>
</svg>
