<svg width="76" height="112" viewBox="0 0 76 112" fill="none" xmlns="http://www.w3.org/2000/svg">
<rect width="76" height="111.482" rx="6" fill="white"/>
<path fill-rule="evenodd" clip-rule="evenodd" d="M22.62 23.5C22.62 22.1193 23.7393 21 25.12 21C26.5007 21 27.62 22.1193 27.62 23.5C27.62 24.8807 26.5007 26 25.12 26C23.7393 26 22.62 24.8807 22.62 23.5Z" fill="#1ABCFE"/>
<path fill-rule="evenodd" clip-rule="evenodd" d="M17.62 28.5C17.62 27.1193 18.7393 26 20.12 26H22.62V28.5C22.62 29.8807 21.5007 31 20.12 31C18.7393 31 17.62 29.8807 17.62 28.5Z" fill="#0ACF83"/>
<path fill-rule="evenodd" clip-rule="evenodd" d="M22.62 16V21H25.12C26.5007 21 27.62 19.8807 27.62 18.5C27.62 17.1193 26.5007 16 25.12 16H22.62Z" fill="#FF7262"/>
<path fill-rule="evenodd" clip-rule="evenodd" d="M17.62 18.5C17.62 19.8807 18.7393 21 20.12 21H22.62V16H20.12C18.7393 16 17.62 17.1193 17.62 18.5Z" fill="#F24E1E"/>
<path fill-rule="evenodd" clip-rule="evenodd" d="M17.62 23.5C17.62 24.8807 18.7393 26 20.12 26H22.62V21H20.12C18.7393 21 17.62 22.1193 17.62 23.5Z" fill="#A259FF"/>
<path d="M43.62 21.4617C43.62 19.5919 43.62 18.657 43.9839 17.9429C44.304 17.3147 44.8147 16.804 45.4429 16.4839C46.157 16.12 47.0919 16.12 48.9617 16.12H53.0383C54.9081 16.12 55.843 16.12 56.5571 16.4839C57.1853 16.804 57.696 17.3147 58.0161 17.9429C58.38 18.657 58.38 19.5919 58.38 21.4617V25.5383C58.38 27.4081 58.38 28.343 58.0161 29.0571C57.696 29.6853 57.1853 30.196 56.5571 30.5161C55.843 30.88 54.9081 30.88 53.0383 30.88H48.9617C47.0919 30.88 46.157 30.88 45.4429 30.5161C44.8147 30.196 44.304 29.6853 43.9839 29.0571C43.62 28.343 43.62 27.4081 43.62 25.5383V21.4617Z" fill="#001E36"/>
<path d="M46.7829 26.935V20.4444C46.7829 20.4002 46.8013 20.375 46.8444 20.375C47.4799 20.375 48.1152 20.3371 48.7508 20.3371C49.7824 20.3371 50.8993 20.6899 51.2908 21.769C51.3831 22.0339 51.4323 22.3051 51.4323 22.589C51.4323 23.1315 51.3093 23.5793 51.0633 23.9325C50.3761 24.9192 49.185 24.9039 48.1174 24.9039V26.9287C48.1257 26.9886 48.0747 27.017 48.0252 27.017H46.8567C46.8075 27.017 46.7829 26.9917 46.7829 26.935ZM48.1235 21.5924V23.7118C48.5469 23.7427 48.9898 23.7461 49.3966 23.6109C49.8457 23.4813 50.0916 23.0926 50.0916 22.6268C50.104 22.23 49.8878 21.8491 49.5196 21.7059C49.1178 21.5388 48.5573 21.5288 48.1235 21.5924Z" fill="#31A8FF"/>
<path d="M55.2681 23.293C55.082 23.1949 54.8838 23.1232 54.6789 23.0798C54.4157 23.0178 53.3773 22.8009 53.3769 23.3438C53.3861 23.6469 53.8673 23.7954 54.0799 23.882C54.8263 24.1383 55.6708 24.5963 55.6542 25.5171C55.6771 26.6633 54.5665 27.1215 53.6145 27.1216C53.1189 27.1267 52.6027 27.05 52.1491 26.8372C52.1058 26.8143 52.0779 26.7653 52.0798 26.7154V25.6186C52.0749 25.5746 52.1221 25.5362 52.159 25.5678C52.6034 25.8366 53.1301 25.9671 53.6442 25.974C53.8712 25.974 54.3209 25.9521 54.3176 25.6186C54.3176 25.2986 53.7795 25.1515 53.565 25.0702C53.2541 24.9592 52.9593 24.8055 52.6887 24.6132C52.3106 24.3435 52.0734 23.911 52.0798 23.4352C52.0776 22.3559 53.0999 21.8715 54.0205 21.8713C54.4509 21.8677 54.9131 21.8996 55.3137 22.0744C55.3713 22.0913 55.3832 22.152 55.383 22.2064V23.2321C55.3867 23.2958 55.316 23.3175 55.2681 23.293Z" fill="#31A8FF"/>
<path d="M15.24 52.3417C15.24 50.4719 15.24 49.537 15.6039 48.8229C15.924 48.1947 16.4347 47.684 17.0629 47.3639C17.7771 47 18.7119 47 20.5817 47H24.6583C26.5281 47 27.463 47 28.1771 47.3639C28.8053 47.684 29.316 48.1947 29.6361 48.8229C30 49.537 30 50.4719 30 52.3417V56.4183C30 58.2881 30 59.223 29.6361 59.9371C29.316 60.5653 28.8053 61.076 28.1771 61.3961C27.463 61.76 26.5281 61.76 24.6583 61.76H20.5817C18.7119 61.76 17.7771 61.76 17.0629 61.3961C16.4347 61.076 15.924 60.5653 15.6039 59.9371C15.24 59.223 15.24 58.2881 15.24 56.4183V52.3417Z" fill="#330000"/>
<path d="M22.3926 56.2758H20.1054L19.64 57.7585C19.6271 57.8135 19.5764 57.8526 19.5212 57.8498H18.3627C18.2967 57.8498 18.2736 57.8126 18.2934 57.7381L20.2737 51.8886C20.2935 51.8277 20.3133 51.7583 20.3331 51.6804C20.359 51.5449 20.3723 51.4072 20.3728 51.2692C20.3671 51.2284 20.4029 51.1923 20.442 51.198H22.0164C22.0625 51.198 22.0889 51.215 22.0956 51.2488L24.3432 57.7483C24.363 57.816 24.3432 57.8499 24.2838 57.8498H22.9966C22.9515 57.855 22.9084 57.824 22.8976 57.7788L22.3926 56.2758ZM20.4618 54.9962H22.0263C21.7693 54.1178 21.4792 53.2511 21.2441 52.3659C20.9904 53.2526 20.7137 54.1357 20.4618 54.9962Z" fill="#FF9A00"/>
<path d="M25.6798 52.2745C25.5788 52.2787 25.4781 52.2609 25.3842 52.2224C25.2904 52.1839 25.2055 52.1255 25.1352 52.0511C25.0651 51.9734 25.0106 51.8823 24.9749 51.7829C24.9392 51.6836 24.923 51.578 24.9273 51.4722C24.9237 51.3675 24.9417 51.2632 24.98 51.166C25.0185 51.0689 25.0764 50.9812 25.1501 50.9086C25.223 50.8368 25.3092 50.7805 25.4035 50.743C25.4978 50.7055 25.5985 50.6876 25.6996 50.6903C25.9373 50.6903 26.1237 50.763 26.259 50.9086C26.3274 50.9842 26.3804 51.073 26.4153 51.1697C26.4501 51.2664 26.466 51.3692 26.462 51.4722C26.4661 51.5784 26.4494 51.6844 26.4129 51.7838C26.3763 51.8832 26.3206 51.9741 26.2491 52.0511C26.1744 52.1266 26.0852 52.1855 25.9873 52.2239C25.8893 52.2624 25.7846 52.2796 25.6798 52.2745ZM24.9966 57.7482V52.894C24.9966 52.833 25.0229 52.8026 25.0758 52.8026H26.2937C26.3464 52.8026 26.3728 52.833 26.3729 52.894V57.7482C26.3729 57.816 26.3465 57.8499 26.2937 57.8498H25.0857C25.0263 57.8498 24.9966 57.816 24.9966 57.7482Z" fill="#FF9A00"/>
<path d="M46 52.3417C46 50.4719 46 49.537 46.3639 48.8229C46.684 48.1947 47.1947 47.684 47.8229 47.3639C48.537 47 49.4719 47 51.3417 47H55.4183C57.2881 47 58.223 47 58.9371 47.3639C59.5653 47.684 60.076 48.1947 60.3961 48.8229C60.76 49.537 60.76 50.4719 60.76 52.3417V56.4183C60.76 58.2881 60.76 59.223 60.3961 59.9371C60.076 60.5653 59.5653 61.076 58.9371 61.3961C58.223 61.76 57.2881 61.76 55.4183 61.76H51.3417C49.4719 61.76 48.537 61.76 47.8229 61.3961C47.1947 61.076 46.684 60.5653 46.3639 59.9371C46 59.223 46 58.2881 46 56.4183V52.3417Z" fill="#00005B"/>
<path d="M49.1629 57.4352V50.7996C49.1629 50.7545 49.1814 50.7287 49.2245 50.7287C49.862 50.7287 50.4991 50.69 51.1367 50.69C52.1713 50.69 53.2916 51.0506 53.6843 52.1538C53.7768 52.4247 53.8261 52.7019 53.8261 52.9921C53.8261 53.5467 53.7028 54.0045 53.456 54.3657C52.7668 55.3744 51.5722 55.3587 50.5014 55.3587V57.4287C50.5098 57.49 50.4585 57.519 50.4089 57.519H49.2369C49.1875 57.519 49.1629 57.4932 49.1629 57.4352ZM50.5075 51.9733V54.1399C50.9322 54.1717 51.3764 54.1751 51.7844 54.0368C52.2348 53.9044 52.4814 53.507 52.4814 53.0308C52.494 52.6251 52.2771 52.2357 51.9078 52.0894C51.5047 51.9185 50.9426 51.9083 50.5075 51.9733Z" fill="#9999FF"/>
<path d="M54.6623 52.3831H55.7448C55.8045 52.3837 55.8581 52.4268 55.8739 52.487C55.9532 52.6711 55.963 52.8932 55.9633 53.092C56.1489 52.866 56.3728 52.6777 56.6237 52.5365C56.8928 52.3774 57.1978 52.2967 57.507 52.3029C57.5583 52.2953 57.6037 52.3427 57.5964 52.3964V53.6526C57.5964 53.7011 57.5631 53.7253 57.497 53.7253C57.0389 53.6922 56.3255 53.8054 55.9926 54.1821V57.4485C55.9926 57.5108 55.9661 57.542 55.9131 57.542H54.7517C54.6946 57.5505 54.6443 57.4968 54.6524 57.4381V53.8914C54.6524 53.4162 54.6622 52.9266 54.5928 52.4558C54.5821 52.4125 54.6217 52.3722 54.6623 52.3831Z" fill="#9999FF"/>
<path d="M14.6816 80.8671C15.2325 81.3146 15.4392 81.2806 16.4745 81.2112L26.2328 80.6257C26.4395 80.6257 26.2675 80.4189 26.1988 80.3849L24.5772 79.213C24.2671 78.9723 23.8528 78.6961 23.0598 78.7648L13.6116 79.4545C13.2675 79.4885 13.1981 79.6613 13.3355 79.7986L14.6816 80.8671ZM15.2672 83.1415L15.2672 93.4085C15.2672 93.9601 15.5426 94.1669 16.1636 94.1322L26.8878 93.5119C27.5088 93.4779 27.5782 93.0984 27.5782 92.6501V82.4518C27.5782 82.0043 27.4061 81.7628 27.0258 81.7968L15.8188 82.4518C15.4053 82.4865 15.2672 82.694 15.2672 83.1415ZM25.854 83.6916C25.9226 84.0017 25.854 84.3119 25.5438 84.3473L25.0269 84.4507V92.0299C24.578 92.2713 24.1644 92.4094 23.8196 92.4094C23.2673 92.4094 23.1292 92.2366 22.7157 91.7205L19.3359 86.4142V91.5477L20.4051 91.7899C20.4051 91.7899 20.4051 92.4102 19.5427 92.4102L17.1634 92.5475C17.0948 92.4102 17.1634 92.0653 17.4049 91.9966L18.0252 91.8246L18.0252 85.0363L17.1649 84.9668C17.0955 84.6567 17.2683 84.2092 17.7505 84.1745L20.3025 84.0025L23.8203 89.3775V84.622L22.9232 84.5194C22.8545 84.1398 23.1299 83.8644 23.4748 83.8304L25.854 83.6916ZM12.8186 78.5241L22.647 77.8004C23.8536 77.6971 24.1644 77.7657 24.9228 78.3173L28.0604 80.5223C28.5773 80.9011 28.7501 81.0045 28.7501 81.418L28.7501 93.5119C28.7501 94.2695 28.4746 94.7185 27.5095 94.7864L16.0949 95.4761C15.3713 95.5108 15.0257 95.4074 14.6462 94.9245L12.3356 91.9265C11.9221 91.3749 11.7501 90.9621 11.7501 90.4792L11.7501 79.7292C11.7501 79.1097 12.0262 78.592 12.8186 78.5241Z" fill="black"/>
<path d="M44.7501 93.3219C44.7501 94.0271 45.3262 94.5983 46.036 94.5983H46.0545C45.3338 94.5983 44.7501 94.0271 44.7501 93.3219Z" fill="#FBBC05"/>
<path d="M55.8006 83.43V86.7624L60.2933 83.1386V79.92C60.2933 79.2148 59.7172 78.6437 59.0074 78.6437H49.2741L49.2654 83.43H55.8006Z" fill="#FBBC05"/>
<path d="M55.8009 90.0962H49.2548L49.2472 94.5986H59.0077C59.7186 94.5986 60.2936 94.0274 60.2936 93.3222V90.4163L55.8009 86.7638V90.0962Z" fill="#34A853"/>
<path d="M49.2743 78.6437L44.7501 83.43H49.2667L49.2743 78.6437Z" fill="#EA4335"/>
<path d="M44.7501 90.0959V93.3219C44.7501 94.0271 45.3338 94.5982 46.0545 94.5982H49.2471L49.2547 90.0959H44.7501Z" fill="#1967D2"/>
<path d="M49.2667 83.43H44.7501V90.0958H49.2547L49.2667 83.43Z" fill="#4285F4"/>
<path d="M64.2436 92.1873V81.2318C63.9903 79.7778 62.3956 81.4445 62.3956 81.4445L60.2944 83.1389V90.4153L63.3022 92.8606C64.3881 93.0031 64.2436 92.1873 64.2436 92.1873Z" fill="#34A853"/>
<path d="M55.8007 86.7624L60.2944 90.416V83.1397L55.8007 86.7624Z" fill="#188038"/>
</svg>
